<?xml version="1.0" standalone="no"?>
<!DOCTYPE svg PUBLIC "-//W3C//DTD SVG 20010904//EN"
 "http://www.w3.org/TR/2001/REC-SVG-20010904/DTD/svg10.dtd">
<svg version="1.0" xmlns="http://www.w3.org/2000/svg"
 width="659.000000pt" height="1446.000000pt" viewBox="0 0 659.000000 1446.000000"
 preserveAspectRatio="xMidYMid meet">

<g transform="translate(0.000000,1446.000000) scale(0.100000,-0.100000)"
fill="#000000" stroke="none">
<path d="M4576 14341 c-19 -27 -33 -38 -43 -34 -13 5 -15 0 -11 -23 3 -16 8
-37 12 -46 6 -13 3 -15 -13 -11 -11 3 -20 8 -19 12 2 17 -3 34 -8 28 -3 -3
-17 -2 -29 3 -16 6 -36 4 -62 -5 -21 -8 -50 -16 -65 -20 -21 -4 -28 -11 -28
-29 0 -13 -7 -29 -15 -36 -8 -7 -17 -28 -21 -48 -4 -19 -22 -62 -40 -94 -19
-33 -34 -64 -34 -69 0 -4 -9 -13 -20 -19 -11 -6 -18 -15 -14 -21 3 -5 0 -17
-7 -25 -16 -20 -20 -91 -6 -138 11 -38 11 -38 54 -33 24 2 43 1 43 -3 0 -22
44 8 75 51 59 83 170 130 350 149 54 5 92 2 165 -13 97 -20 180 -52 180 -68 0
-6 14 -23 31 -40 22 -21 29 -35 23 -47 -4 -9 -6 -23 -5 -29 1 -7 -3 -13 -10
-13 -6 0 -1 -9 12 -20 15 -12 20 -22 14 -27 -12 -9 -37 -67 -56 -131 -11 -39
-11 -45 10 -73 31 -42 71 -129 71 -156 0 -12 10 -48 22 -80 12 -32 21 -64 19
-71 -1 -7 4 -12 11 -10 17 4 58 -37 58 -57 0 -8 9 -24 20 -35 24 -24 19 -65
-11 -92 -10 -9 -19 -19 -19 -22 0 -3 32 -6 71 -6 39 0 79 -5 90 -10 33 -18 61
5 57 48 -3 33 -7 38 -48 53 -25 9 -45 23 -45 30 0 8 6 13 13 11 8 -1 29 7 47
18 l34 21 14 -23 c8 -13 18 -38 22 -56 5 -26 10 -31 20 -22 10 8 14 7 18 -2 3
-7 6 5 7 27 1 22 5 49 9 60 15 38 22 -61 8 -104 -40 -115 -91 -159 -187 -163
-47 -2 -54 0 -72 26 -12 15 -38 39 -60 52 -21 14 -42 32 -45 41 -10 26 -36 53
-50 53 -17 0 -16 12 2 36 18 24 19 52 1 70 -19 18 -35 18 -42 -1 -9 -24 -24
-17 -24 10 0 14 -1 25 -3 25 -1 0 -17 -4 -35 -9 -24 -7 -32 -7 -32 4 0 16 -46
25 -59 12 -8 -8 -11 -7 -11 1 0 7 -9 12 -20 12 -12 0 -34 7 -49 15 -30 15
-180 29 -206 19 -8 -4 -15 -18 -15 -34 0 -16 -6 -31 -12 -33 -8 -3 -6 -6 4 -6
9 -1 25 -14 35 -31 9 -16 20 -30 24 -30 4 0 12 -14 18 -30 10 -31 6 -60 -10
-60 -5 0 -9 -6 -9 -14 0 -8 -5 -16 -12 -18 -23 -8 -58 4 -58 20 0 8 -10 35
-22 60 -20 39 -32 50 -88 75 -95 43 -114 77 -49 87 47 7 48 31 2 74 -68 65
-184 108 -248 92 -30 -8 -31 -24 -5 -96 11 -30 20 -57 20 -60 0 -3 4 2 10 10
5 8 12 11 16 8 8 -9 -46 -68 -62 -68 -7 0 -15 -7 -18 -15 -3 -9 -21 -22 -39
-30 -19 -8 -38 -20 -43 -27 -11 -15 -12 -74 -1 -85 4 -3 -2 -17 -14 -29 -23
-25 -24 -81 0 -76 19 4 7 -52 -19 -85 -11 -14 -17 -30 -14 -35 3 -5 11 -2 17
6 7 9 23 17 37 18 23 3 25 0 22 -37 -2 -22 -7 -42 -10 -45 -4 -3 -13 -18 -20
-34 -10 -22 -16 -26 -26 -17 -10 8 -17 7 -29 -7 -22 -24 -17 -157 7 -194 18
-28 49 -44 65 -34 5 3 15 -1 22 -10 16 -19 74 -44 104 -44 13 0 25 -5 27 -11
2 -7 38 -13 88 -16 130 -6 142 -9 201 -62 30 -26 68 -55 84 -65 17 -9 55 -34
85 -57 30 -22 84 -55 120 -73 36 -18 91 -49 122 -69 81 -52 109 -56 133 -20
11 15 18 34 17 41 -2 8 1 19 5 25 17 25 9 72 -14 82 -30 13 -29 23 3 35 14 6
23 14 20 19 -4 5 0 11 6 14 10 3 10 9 -1 30 -8 15 -11 33 -6 44 11 24 6 46
-11 56 -8 4 -14 17 -14 28 0 11 -4 18 -9 15 -5 -4 -6 9 -1 28 4 19 5 46 2 61
-4 22 4 35 52 79 31 29 56 58 56 65 0 6 5 11 10 11 6 0 10 6 10 14 0 8 11 23
25 34 18 15 23 27 21 49 -3 24 2 35 24 52 26 19 60 28 60 17 0 -3 -5 -17 -11
-33 -6 -15 -15 -59 -19 -98 -5 -38 -12 -86 -15 -106 -6 -29 -4 -36 9 -36 20 0
111 101 149 165 11 18 32 39 48 48 19 10 29 22 29 38 0 13 14 36 35 55 19 17
35 37 35 45 0 7 9 21 21 32 12 10 30 36 40 57 11 20 24 37 29 37 6 0 10 15 10
33 0 18 8 43 17 57 22 31 27 91 24 275 -2 108 -6 156 -16 171 -12 19 -52 121
-59 149 -1 6 -8 21 -16 35 -7 14 -11 25 -9 25 2 0 -15 18 -38 38 -25 23 -44
51 -49 70 -3 18 -15 44 -25 59 -11 14 -19 35 -19 46 0 11 -16 36 -36 56 -37
37 -54 45 -54 24 0 -6 -12 -1 -27 13 -19 18 -25 19 -20 7 3 -10 2 -20 -4 -23
-11 -7 -55 38 -103 105 -25 35 -38 44 -55 42 -25 -4 -107 23 -131 43 -8 7 -20
11 -26 8 -6 -2 -17 3 -23 11 -8 10 -22 13 -41 10 -15 -4 -31 -1 -34 5 -4 6
-15 11 -25 11 -10 0 -24 7 -31 15 -7 9 -20 13 -28 10 -8 -3 -16 3 -19 15 -4
14 -14 20 -32 20 -15 0 -31 4 -36 9 -6 5 -19 11 -30 13 -11 1 -26 10 -33 18
-10 11 -15 12 -18 3 -8 -18 -54 -16 -74 2 -16 14 -19 12 -44 -24z m916 -1138
c10 -9 18 -25 18 -35 0 -16 -3 -15 -24 8 -23 28 -23 28 -80 14 -64 -15 -81 -9
-39 14 38 20 102 20 125 -1z m-1172 -222 c0 -5 -25 -11 -55 -13 -61 -5 -84
-24 -85 -70 0 -36 -17 -78 -31 -78 -6 0 -9 7 -6 15 4 8 2 17 -3 20 -20 13 -9
52 28 93 35 40 39 42 95 42 31 0 57 -4 57 -9z m-200 -51 c0 -13 -28 -25 -38
-16 -3 4 0 11 8 16 20 13 30 12 30 0z m235 -130 c3 -5 1 -10 -4 -10 -6 0 -11
5 -11 10 0 6 2 10 4 10 3 0 8 -4 11 -10z"/>
<path d="M2260 13760 c-6 -11 -15 -52 -20 -92 -12 -98 -36 -192 -65 -255 l-24
-51 -37 8 c-20 5 -51 6 -69 3 -26 -4 -36 -1 -48 17 -8 12 -27 28 -41 35 -24
13 -26 12 -26 -5 0 -10 -5 -22 -11 -25 -7 -5 -5 -15 5 -31 9 -13 16 -32 16
-44 0 -11 5 -20 10 -20 22 0 9 -41 -16 -50 -54 -21 -87 -12 -129 32 l-39 42
-7 -33 c-4 -19 -5 -40 -3 -46 6 -15 -14 -31 -49 -37 -22 -4 -32 0 -48 23 -26
37 -67 39 -98 5 l-23 -25 31 -67 c17 -36 31 -77 31 -90 0 -12 4 -26 10 -29 5
-3 9 -16 9 -28 -1 -26 42 -198 67 -268 17 -46 17 -51 1 -84 -9 -20 -17 -46
-17 -60 0 -28 -43 -65 -75 -65 -37 0 -247 -49 -287 -66 -40 -18 -58 -55 -58
-121 0 -18 -12 -56 -28 -85 -15 -29 -36 -79 -47 -112 -12 -38 -21 -52 -25 -42
-5 14 -12 12 -52 -14 -65 -43 -75 -57 -60 -81 17 -27 7 -39 -33 -39 -61 0
-118 -68 -82 -98 16 -13 117 -11 117 2 0 5 3 6 7 3 3 -4 12 -2 20 4 20 17 16
2 -8 -25 -34 -39 -70 -50 -111 -33 -34 14 -68 62 -68 94 0 14 -10 16 -34 7
-25 -10 -19 -39 20 -89 33 -44 34 -48 17 -61 -26 -20 -28 -19 -62 36 -45 73
-69 66 -138 -38 -26 -38 -61 -66 -224 -176 -20 -14 -47 -40 -60 -58 -31 -45
-70 -77 -94 -78 -17 0 -17 -2 -5 -10 13 -9 13 -10 -1 -10 -8 0 -28 -13 -43
-29 -16 -17 -64 -44 -107 -62 l-79 -31 0 -58 c0 -32 -3 -66 -6 -75 -6 -15 -4
-15 14 -4 30 19 38 4 12 -23 -45 -47 -52 -64 -45 -112 4 -25 10 -46 14 -46 3
0 6 -47 6 -104 0 -100 1 -105 31 -147 26 -37 32 -53 31 -97 -1 -37 5 -60 19
-79 11 -16 35 -56 53 -89 18 -34 48 -76 66 -94 l33 -32 59 35 c83 50 195 92
293 111 47 8 112 25 145 36 108 38 99 39 91 -11 -26 -169 -25 -241 4 -350 9
-34 9 -56 1 -85 -16 -57 -13 -149 5 -216 15 -51 15 -67 4 -116 -14 -64 -24
-189 -40 -517 -6 -126 -16 -241 -21 -254 -15 -37 -36 -158 -45 -252 -3 -46
-18 -118 -31 -159 -16 -48 -28 -116 -34 -190 -6 -73 -17 -141 -33 -190 -14
-41 -35 -113 -46 -160 -23 -93 -61 -200 -95 -270 -13 -25 -41 -112 -64 -195
-23 -82 -65 -220 -93 -305 -42 -127 -52 -173 -57 -252 -3 -57 -11 -102 -19
-110 -13 -13 -17 -124 -4 -132 5 -3 62 -10 128 -15 72 -6 143 -18 179 -31 112
-39 189 -50 425 -61 156 -7 263 -16 320 -29 47 -10 166 -23 266 -30 99 -6 209
-15 245 -20 35 -6 145 -16 244 -25 99 -8 216 -22 260 -30 47 -10 186 -20 340
-26 207 -7 267 -13 295 -26 23 -11 71 -18 143 -21 l108 -5 -3 -201 -3 -201 26
-22 c29 -25 44 -77 33 -117 -8 -33 -32 -33 -40 -1 -7 27 -24 34 -24 10 0 -15
18 -96 28 -125 3 -10 7 -7 11 10 5 16 14 25 26 25 28 0 31 -45 9 -117 -17 -58
-35 -72 -52 -41 -9 14 -11 14 -21 -5 -16 -30 -25 -131 -16 -188 l7 -49 16 30
c8 17 19 52 23 79 14 86 31 76 37 -21 4 -54 0 -75 -16 -107 -73 -142 -76 -157
-77 -340 0 -148 3 -178 20 -221 21 -52 26 -167 15 -318 l-5 -68 65 -27 c62
-26 65 -29 68 -65 2 -21 15 -55 28 -75 18 -26 24 -46 21 -67 -10 -58 -28 -120
-41 -135 -8 -10 -12 -40 -11 -86 1 -59 7 -83 34 -133 25 -49 32 -73 30 -114
-1 -29 5 -71 12 -94 10 -34 10 -49 -1 -82 -10 -31 -10 -49 -1 -83 16 -61 16
-115 1 -253 -8 -81 -18 -126 -29 -139 -24 -28 -24 -845 1 -991 9 -55 19 -167
23 -250 3 -82 12 -179 20 -215 8 -36 20 -91 26 -122 11 -50 11 -61 -5 -96 -10
-21 -18 -59 -19 -83 -1 -43 -2 -45 -72 -92 -86 -57 -120 -60 -158 -17 -45 50
-86 11 -46 -44 20 -27 20 -30 6 -41 -9 -7 -54 -15 -99 -18 -105 -8 -122 -24
-116 -104 5 -60 2 -65 -95 -128 -32 -21 -56 -40 -53 -42 3 -3 28 1 57 8 41 11
53 11 57 1 2 -6 10 -12 18 -12 9 0 12 -5 9 -10 -4 -6 -14 -10 -23 -9 -17 2
-85 -8 -112 -18 -10 -3 -6 -9 15 -17 17 -7 34 -11 39 -8 5 3 6 -12 2 -34 -6
-34 -5 -36 6 -19 7 11 13 24 13 29 0 5 10 12 23 17 16 6 22 5 22 -6 0 -8 3
-14 8 -13 4 1 37 -4 75 -11 63 -13 67 -15 65 -39 -2 -17 2 -26 14 -27 10 -2
24 -10 33 -18 14 -14 12 -16 -17 -19 -18 -2 -32 -7 -31 -13 1 -5 -7 -13 -19
-18 -16 -6 -18 -10 -8 -22 9 -11 5 -15 -24 -20 -29 -6 -42 -2 -80 24 -52 36
-72 40 -56 12 22 -42 7 -49 -54 -25 -12 4 -16 0 -16 -16 0 -20 -4 -22 -35 -16
-46 9 -45 1 3 -14 20 -7 51 -18 67 -25 17 -7 45 -18 63 -25 17 -7 32 -16 32
-20 0 -8 -70 3 -88 14 -6 3 -13 2 -17 -4 -3 -5 -27 -10 -52 -10 -45 0 -46 0
-28 20 18 19 11 26 -19 21 -4 -1 -13 2 -20 7 -6 5 -26 12 -45 16 -26 5 -32 3
-28 -8 8 -21 -18 -24 -91 -10 -51 9 -65 9 -69 -2 -7 -18 -83 -16 -83 2 0 8 7
14 15 14 20 0 19 16 -1 24 -10 4 -13 13 -9 26 5 15 2 20 -14 20 -10 0 -27 3
-36 6 -11 5 -18 0 -22 -15 -4 -17 -13 -21 -44 -21 -30 0 -51 -10 -104 -50
l-66 -50 26 -24 c48 -44 121 -56 351 -56 226 0 363 15 436 48 27 11 81 22 139
26 51 4 150 21 219 38 117 28 143 30 405 38 159 4 296 13 317 19 36 11 95 68
83 80 -4 3 -13 -2 -20 -13 -12 -16 -18 -17 -52 -6 -21 6 -47 15 -58 20 -11 4
-35 13 -52 20 -37 14 -34 35 3 26 13 -4 24 -2 24 2 0 5 -19 13 -42 18 -23 5
-43 14 -44 19 -4 11 64 45 90 45 9 0 19 7 22 15 4 9 19 15 35 15 16 0 29 5 29
10 0 6 -7 10 -15 10 -8 0 -15 7 -15 15 0 8 5 15 10 15 16 0 12 46 -5 60 -22
18 -68 -13 -60 -41 5 -15 2 -19 -17 -19 -24 0 -64 20 -40 20 6 0 12 6 12 14 0
9 -18 16 -50 20 -55 7 -66 22 -22 32 127 27 177 67 213 172 20 57 19 123 -2
179 -5 13 -4 25 1 28 13 8 13 48 0 61 -7 7 -5 25 4 55 8 24 19 100 24 169 6
69 17 154 25 190 8 36 18 130 21 210 5 130 8 153 35 220 38 97 82 264 131 498
21 103 46 219 55 257 20 88 29 349 18 518 -6 93 -5 137 4 162 10 28 9 44 -2
83 -8 26 -15 75 -15 110 0 34 -4 62 -10 62 -5 0 -10 -5 -10 -11 0 -5 -12 -35
-26 -64 -27 -58 -65 -95 -97 -95 -16 0 -19 5 -14 29 4 16 15 49 26 73 36 80
43 116 38 201 -3 45 -8 96 -12 112 -10 47 25 100 81 121 33 13 46 23 50 43 14
62 13 61 65 61 28 0 59 5 69 10 17 9 22 5 34 -25 14 -32 18 -35 58 -35 24 0
120 12 213 26 94 13 197 27 231 31 60 5 61 5 72 -23 7 -16 30 -108 52 -204 48
-212 67 -268 125 -375 29 -54 45 -95 45 -119 0 -20 6 -38 15 -43 8 -5 21 -28
30 -53 9 -24 24 -54 34 -65 10 -11 21 -43 24 -72 3 -29 14 -64 23 -78 12 -18
15 -38 11 -72 -3 -25 0 -60 5 -77 6 -17 14 -107 18 -201 5 -120 15 -208 34
-299 16 -78 31 -192 37 -290 12 -202 25 -305 49 -409 11 -45 24 -136 30 -202
12 -149 26 -235 45 -283 8 -20 19 -68 24 -106 6 -44 18 -81 32 -99 29 -39 24
-138 -9 -184 -58 -82 -70 -216 -27 -292 14 -23 25 -51 25 -62 0 -12 5 -16 15
-13 8 3 14 9 13 12 -2 21 6 32 42 57 l39 27 51 -18 c42 -15 53 -16 60 -5 11
19 38 7 50 -23 5 -13 14 -27 20 -31 16 -10 -7 -25 -37 -25 -16 0 -23 8 -28 30
-5 21 -13 30 -26 30 -10 0 -19 -5 -19 -11 0 -7 -9 -9 -24 -5 -15 4 -28 0 -37
-10 -7 -8 -28 -22 -47 -30 -24 -10 -32 -18 -26 -24 7 -7 23 -5 47 5 45 19 77
19 77 2 0 -16 -32 -47 -48 -47 -6 0 -15 -12 -18 -28 -4 -15 -22 -46 -40 -69
-30 -37 -34 -48 -34 -102 0 -73 16 -89 25 -24 9 66 24 102 51 120 13 8 20 21
18 28 -3 7 5 20 18 29 29 19 98 32 98 18 0 -16 -47 -42 -77 -43 -26 -1 -25 -2
7 -10 19 -4 42 -6 50 -4 16 4 60 -27 60 -43 0 -12 -34 -22 -75 -22 -32 0 -63
-15 -53 -25 3 -3 32 -9 64 -12 33 -3 71 -12 86 -19 44 -23 56 -15 13 8 l-40
21 38 13 c31 11 45 11 85 -1 56 -17 72 -18 72 -5 0 6 -11 10 -24 10 -49 0 -75
17 -82 55 -3 20 -13 38 -20 41 -48 14 -50 17 -21 27 27 11 31 21 27 65 -1 19
3 22 39 22 23 0 41 5 41 10 0 6 7 10 15 10 8 0 15 -7 15 -15 0 -9 9 -15 23
-15 20 1 21 2 5 14 -17 12 -17 14 0 30 24 21 58 21 67 -1 14 -38 24 14 21 108
-3 76 -11 115 -41 203 -25 74 -35 119 -31 140 3 17 10 58 15 91 5 33 14 74 20
90 18 52 62 355 72 500 5 77 11 146 14 155 2 8 9 73 14 144 9 115 8 131 -7
152 -21 29 -30 30 -34 2 -2 -12 -15 -29 -29 -37 -24 -13 -29 -13 -53 2 -16 11
-26 26 -25 40 1 17 2 18 6 5 5 -22 50 -35 72 -21 10 6 19 32 23 68 8 59 21 85
43 85 19 0 25 34 25 141 0 88 -13 195 -25 207 -3 3 -13 -2 -22 -10 -20 -18
-67 -42 -100 -52 -41 -13 -24 12 26 39 40 22 52 36 66 72 15 39 16 56 6 132
-6 48 -11 124 -11 170 0 81 -12 127 -30 116 -10 -6 -18 19 -24 72 -2 18 -9 39
-15 47 -7 8 -14 42 -16 76 -3 34 -11 76 -19 93 -19 42 -25 96 -12 100 6 2 5
15 -3 35 -7 18 -11 42 -8 54 4 12 -1 46 -9 75 -14 48 -17 51 -34 40 -15 -9
-22 -9 -32 1 -17 17 -38 15 -38 -3 0 -8 5 -15 10 -15 17 0 11 -18 -12 -42 -32
-33 -167 -114 -201 -120 -32 -6 -43 5 -23 21 21 17 6 57 -36 99 -34 35 -36 40
-29 74 7 30 4 46 -15 85 -24 46 -24 48 -8 95 16 50 58 93 81 83 7 -3 19 -8 27
-11 8 -3 23 4 33 16 45 53 88 90 105 90 10 0 18 5 18 11 0 6 12 20 26 32 20
15 25 27 22 48 -4 22 0 30 16 35 20 7 20 7 -2 15 -12 5 -23 14 -23 21 -1 7 -3
25 -4 39 -3 20 2 29 21 38 14 6 31 11 39 11 28 0 16 419 -12 439 -4 3 -8 130
-9 281 0 151 -4 393 -9 538 -6 185 -5 262 3 262 6 0 11 15 12 33 0 17 3 92 6
165 3 90 2 138 -6 147 -8 9 -8 15 0 20 5 3 10 13 10 21 0 8 -4 13 -9 9 -10 -6
-16 21 -25 113 -4 37 -20 82 -51 144 -26 49 -44 95 -42 101 2 7 11 -3 21 -20
9 -18 22 -32 28 -30 13 2 47 -58 48 -85 0 -21 19 -72 25 -67 5 6 -21 132 -38
189 -8 25 -17 108 -21 185 -8 160 -22 239 -77 450 -83 315 -135 452 -192 508
l-28 27 -92 -24 c-51 -14 -105 -24 -122 -24 -27 1 -25 3 24 26 53 24 54 25 30
35 l-24 11 28 4 c16 2 31 10 33 17 4 10 12 11 31 4 36 -13 37 -12 12 23 -21
28 -23 29 -30 12 -4 -10 -8 -13 -8 -6 -1 17 -31 15 -31 -3 0 -17 -58 -30 -89
-20 -47 14 -21 28 77 41 28 3 52 10 52 15 0 5 11 9 24 9 12 0 37 5 53 11 24 8
30 15 26 30 -4 16 -14 19 -56 19 -36 0 -53 5 -63 18 -10 13 -17 15 -31 6 -20
-12 -46 -7 -37 7 3 5 12 9 21 9 21 0 153 62 153 72 0 11 -14 10 -27 -3 -5 -5
-40 -12 -76 -13 -36 -2 -69 -6 -75 -10 -5 -3 -47 -10 -94 -15 -46 -5 -97 -12
-114 -16 -17 -3 -6 5 29 21 62 29 80 61 27 51 -16 -4 -32 -2 -35 3 -3 6 1 10
10 10 9 0 13 5 10 10 -4 6 6 10 22 10 37 0 73 10 73 20 0 5 -29 12 -65 15 -36
4 -65 11 -65 16 0 5 29 9 65 9 37 0 65 -4 65 -10 0 -5 16 -10 35 -10 39 0 47
15 13 26 -30 9 -5 21 52 25 52 3 80 14 80 33 0 13 -115 19 -408 20 -227 2
-128 18 192 32 121 6 137 8 121 20 -10 8 -39 14 -64 15 -66 1 -96 12 -94 33 1
17 -16 27 -96 57 -43 17 -13 21 36 6 86 -27 88 -27 90 5 1 15 -2 28 -7 28 -6
0 -10 5 -10 11 0 5 4 8 9 5 12 -8 41 3 41 15 0 5 -8 9 -17 10 -27 1 11 15 64
24 39 6 46 4 74 -24 35 -36 49 -39 49 -12 0 28 -37 70 -78 87 -21 9 -31 18
-24 21 20 7 80 -25 98 -53 21 -31 29 -24 26 24 -4 61 -51 78 -125 47 -22 -9
-65 -15 -109 -14 l-73 1 85 14 c113 20 115 21 100 39 -8 10 -31 15 -69 15 -70
0 -106 10 -162 46 -55 35 -33 43 42 14 30 -11 62 -20 71 -20 9 0 29 -7 45 -17
33 -18 72 -13 99 14 19 19 2 32 -19 15 -15 -12 -79 -20 -78 -9 1 4 1 12 1 18
0 5 15 16 33 24 17 8 43 23 57 35 23 18 23 20 5 20 -11 0 -46 8 -78 18 l-58
19 38 10 c21 6 63 9 93 7 l55 -5 -34 16 c-39 17 -39 18 11 38 30 13 40 13 60
2 22 -10 26 -10 36 6 24 37 -88 46 -132 10 -17 -15 -133 -29 -271 -34 l-120
-5 80 19 c44 10 114 25 155 32 80 15 160 45 160 62 0 5 25 11 56 12 31 2 62 7
68 12 6 5 22 11 35 13 14 1 26 8 28 15 8 22 -147 33 -351 23 -68 -3 -101 -1
-103 7 -7 19 13 23 124 24 65 1 121 7 139 14 23 11 25 14 9 14 -17 1 -17 3 -5
11 11 7 12 12 3 21 -12 12 0 45 22 61 5 4 2 10 -8 14 -61 23 54 37 131 16 41
-12 58 -12 78 -3 14 6 24 16 22 23 -7 20 -148 47 -244 48 -50 0 -106 3 -124 6
l-32 7 35 12 c19 6 68 17 108 24 69 12 79 11 159 -12 46 -14 90 -22 97 -20 31
12 7 34 -69 64 -68 27 -95 33 -150 32 -37 -1 -70 2 -73 8 -4 5 -16 9 -28 9
-15 0 -18 3 -10 11 28 28 268 -1 346 -42 10 -6 17 -6 17 -1 0 6 9 12 20 15 47
12 17 37 -90 73 -36 12 -56 23 -45 23 11 0 38 -6 60 -14 22 -8 57 -14 77 -15
31 0 36 3 31 16 -4 10 1 22 11 30 17 12 17 13 -2 32 -20 20 -20 20 4 31 15 7
22 16 18 26 -4 8 -2 21 4 28 8 11 25 71 37 135 2 12 6 26 10 31 3 5 -2 17 -11
25 -14 15 -14 16 1 16 12 0 15 6 9 23 -8 27 -1 21 -54 40 l-45 16 53 -6 c59
-6 55 -12 53 89 0 31 4 60 9 63 6 4 8 16 5 27 -4 12 0 27 11 40 18 19 18 20 1
33 -23 16 -22 24 3 18 24 -6 26 9 5 27 -13 11 -12 15 11 35 26 22 26 23 8 45
-11 12 -32 29 -49 37 l-30 14 30 -7 c49 -11 60 -10 60 6 0 8 9 16 20 18 36 6
139 59 160 82 15 17 20 37 21 84 1 33 -3 66 -7 72 -5 6 -10 33 -11 59 -2 40
-6 49 -28 58 -14 6 -45 28 -69 49 -24 21 -49 38 -55 38 -6 0 -19 9 -29 20 -9
11 -29 21 -44 22 -42 2 -47 3 -60 11 -9 6 -13 2 -13 -12 0 -18 -21 -23 -36 -8
-4 4 -18 7 -31 7 -13 0 -23 5 -23 10 0 6 -8 10 -18 10 -10 0 -29 13 -42 30
-14 16 -31 29 -37 30 -7 0 -13 4 -13 9 0 16 -97 72 -177 102 -43 17 -121 43
-173 59 -155 49 -174 56 -177 67 -2 6 6 11 19 11 176 2 302 9 305 17 1 6 -1
15 -5 21 -8 11 -121 34 -173 34 -43 0 -79 10 -79 21 0 5 11 9 24 9 33 0 76 17
76 30 0 5 -7 10 -15 10 -8 0 -15 4 -15 9 0 9 -25 19 -80 32 -49 11 -228 46
-272 54 -21 3 -44 13 -53 21 -9 9 -27 17 -40 18 -13 0 -29 10 -35 21 -6 11
-24 28 -40 37 -24 14 -31 14 -47 3 -15 -11 -21 -11 -35 2 -12 11 -21 12 -36 4
-18 -10 -21 -7 -27 19 -7 32 -29 40 -39 15 -3 -9 -12 -12 -21 -9 -13 5 -16 20
-15 73 2 86 2 87 -11 74 -6 -6 -11 -42 -10 -82 1 -89 -2 -91 -148 -91 -113 0
-218 19 -233 42 -30 48 8 71 129 78 92 6 122 17 108 41 -6 9 -32 10 -104 4
-100 -8 -120 -8 -212 -3 -52 3 -57 5 -68 33 -10 27 -9 32 15 52 32 25 61 32
174 38 129 7 194 36 114 51 -34 6 -55 4 -174 -15 -42 -7 -62 -6 -84 5 -16 8
-39 14 -51 14 -26 0 -55 -29 -55 -56 0 -16 -2 -17 -10 -4 -5 8 -10 36 -10 62
0 64 37 108 101 119 41 7 40 7 -21 7 -36 0 -76 3 -89 7 -18 6 -22 5 -16 -5 4
-7 4 -15 -1 -19 -5 -3 -22 -23 -38 -44 -45 -62 -96 -67 -96 -11 0 31 69 109
84 94 5 -5 16 -10 23 -10 22 0 -12 63 -47 87 -18 12 -49 25 -69 29 -20 3 -59
19 -87 35 -64 36 -78 36 -116 -1 -16 -16 -34 -30 -40 -30 -5 0 -32 11 -59 25
-27 13 -48 21 -46 17 1 -4 -2 -7 -8 -7 -5 0 -9 5 -8 10 2 6 -10 19 -26 30 -16
10 -27 23 -25 27 10 16 -19 50 -71 84 -30 18 -60 34 -68 34 -7 0 -28 11 -47
25 -19 14 -40 23 -47 21 -7 -3 -13 -1 -13 4 0 6 -7 10 -15 10 -8 0 -15 5 -15
10 0 6 -11 10 -25 10 -14 0 -25 5 -25 10 0 6 5 10 12 10 9 0 9 3 1 11 -8 8
-17 8 -32 -1 -17 -8 -33 -7 -76 6 -54 17 -67 30 -42 40 8 3 14 11 14 19 0 11
-15 15 -61 17 -67 1 -69 1 -108 12 -14 4 -35 3 -45 -2 -11 -6 -25 -7 -32 -3
-21 13 -49 2 -44 -18 3 -14 -10 -18 -87 -29 -51 -7 -100 -17 -111 -22 -10 -6
-46 -13 -81 -16 -113 -9 -218 -26 -218 -35 0 -5 -4 -9 -10 -9 -22 0 -8 19 28
37 33 16 38 23 42 64 3 25 14 58 24 74 17 25 18 42 11 172 -6 123 -5 147 9
168 26 39 21 58 -11 50 -16 -3 -37 -14 -48 -23 -21 -18 -61 -42 -70 -42 -16 0
0 30 30 60 19 19 34 39 33 44 -1 6 6 43 16 81 9 39 26 104 36 145 11 42 25
120 32 174 12 98 12 98 -11 117 -30 25 -67 24 -81 -1z m-77 -682 c-6 -57 -15
-74 -32 -64 -15 10 -14 103 2 109 32 13 36 7 30 -45z m792 -358 c3 -5 -1 -10
-9 -10 -9 0 -16 5 -16 10 0 6 4 10 9 10 6 0 13 -4 16 -10z m-235 -69 c0 -4
-14 -38 -30 -75 -42 -92 -80 -212 -80 -252 0 -50 -20 -53 -21 -2 l-1 43 -12
-37 c-29 -93 -35 -29 -10 103 16 88 42 165 69 205 11 18 24 24 50 24 19 0 35
-4 35 -9z m700 -211 c-19 -13 -30 -13 -30 0 0 6 10 10 23 10 18 0 19 -2 7 -10z
m50 -94 c0 -8 3 -21 6 -30 5 -13 -1 -16 -27 -15 -19 0 -29 3 -23 5 6 3 9 16 6
29 -3 20 0 25 17 25 11 0 21 -6 21 -14z m-2343 -323 c-3 -10 -5 -4 -5 12 0 17
2 24 5 18 2 -7 2 -21 0 -30z m3396 -460 c-1 -25 -6 -50 -12 -56 -20 -20 -13
-67 11 -76 22 -8 22 -8 -3 -14 -22 -6 -27 -15 -36 -63 -9 -49 -8 -55 3 -39 8
10 14 15 14 11 0 -4 -9 -19 -19 -32 -16 -21 -20 -22 -25 -7 -5 13 -9 14 -19 4
-9 -10 -8 -15 5 -25 10 -7 15 -16 12 -19 -4 -3 -10 -34 -15 -69 -11 -85 -26
-166 -37 -203 l-9 -30 -16 50 c-14 47 -14 51 4 64 27 19 26 86 -1 101 -12 6
-30 8 -40 5 -17 -5 -20 -2 -19 22 0 15 3 22 6 16 12 -32 19 -7 19 65 -1 60 3
85 17 106 18 27 18 28 0 49 -10 12 -24 26 -30 30 -23 14 -14 35 43 96 35 38
64 61 78 61 11 0 28 5 36 10 23 14 35 -6 33 -57z m207 -63 c0 -5 -10 -10 -22
-9 -22 0 -22 1 -3 9 11 5 21 9 23 9 1 1 2 -3 2 -9z m-70 -34 c0 -7 -63 -37
-68 -32 -2 3 9 11 25 20 28 15 43 19 43 12z m190 -24 c0 -5 -18 -18 -40 -31
-48 -27 -53 -15 -7 16 35 24 47 28 47 15z m90 -61 c0 -4 -19 -24 -42 -42 -23
-19 -50 -42 -60 -52 -24 -23 -62 -37 -96 -36 l-27 0 25 11 c59 25 73 34 120
80 45 44 80 61 80 39z m-346 -86 c-4 -10 0 -15 14 -15 12 0 24 -4 27 -10 7
-11 -36 -12 -74 -1 -23 6 -23 7 -7 24 22 21 48 23 40 2z m-46 -381 c12 -8 20
-19 17 -24 -8 -13 -45 -13 -45 0 0 6 -7 10 -15 10 -8 0 -19 9 -25 19 -9 18 -7
19 18 15 15 -3 37 -12 50 -20z m-1556 -14 c-1 -18 0 -21 7 -11 15 23 33 -23
25 -64 -6 -34 8 -50 20 -22 3 6 3 -3 0 -22 -4 -19 -2 -36 5 -40 11 -7 22 -133
15 -166 -3 -11 -16 -25 -30 -32 -22 -10 -24 -10 -14 2 12 15 6 35 -11 35 -5 0
-9 -6 -9 -12 0 -15 -49 -40 -62 -32 -5 3 -17 -1 -27 -10 -17 -16 -19 -14 -25
30 -3 26 -6 67 -6 91 0 56 -23 101 -61 117 l-30 12 60 57 c34 33 69 57 81 57
13 0 19 4 14 11 -8 13 15 30 36 26 9 -2 14 -12 12 -27z m-223 -69 c9 -15 7
-18 -7 -17 -12 1 -17 -6 -17 -24 0 -21 -4 -24 -25 -22 -21 3 -22 2 -11 -12 11
-13 9 -24 -12 -68 -47 -101 -85 -223 -91 -293 -6 -63 -67 -308 -95 -377 -6
-16 -18 -28 -26 -28 -9 0 -13 -4 -10 -10 6 -9 -29 -15 -65 -11 -8 0 -39 2 -68
2 -41 1 -50 4 -42 14 8 10 8 15 -1 20 -16 11 -5 91 27 195 56 184 96 307 115
348 10 23 19 47 19 52 0 17 64 150 72 150 5 0 14 -12 20 -27 9 -24 12 -25 16
-9 2 10 -1 22 -6 25 -7 4 -7 12 -2 21 7 12 11 12 25 0 15 -12 21 -9 51 25 30
35 34 37 34 17 0 -27 20 -28 50 -2 13 11 20 20 16 20 -6 0 15 28 21 30 1 0 7
-8 12 -19z m-734 0 c2 -4 -1 -13 -6 -21 -8 -13 -10 -13 -18 -1 -6 9 -18 11
-35 7 -14 -3 -26 -2 -26 3 0 16 76 26 85 12z m145 -16 c-7 -9 -10 -18 -6 -22
3 -4 12 1 19 9 6 9 22 19 33 22 19 6 21 3 17 -21 l-4 -28 17 23 c21 28 44 29
37 2 -3 -11 0 -20 6 -20 12 0 16 -62 5 -73 -9 -8 -13 -48 -18 -167 -3 -59 -14
-133 -31 -195 -14 -55 -32 -125 -40 -155 -7 -30 -20 -75 -29 -100 -9 -25 -16
-52 -16 -61 0 -25 -47 -64 -62 -51 -8 6 -40 13 -72 16 -32 3 -65 11 -72 17
-17 14 -11 65 22 169 12 41 37 131 54 200 18 71 38 130 47 137 13 10 13 15 4
27 -10 12 -6 14 29 10 38 -3 53 7 29 22 -8 4 -8 9 0 17 14 14 14 27 1 27 -5 0
-10 -7 -10 -15 0 -9 -9 -15 -25 -15 -25 0 -37 20 -12 20 6 0 4 5 -5 11 -20 11
-24 71 -9 112 13 35 70 97 88 97 13 0 13 -3 3 -15z m882 -349 c32 -24 39 -65
33 -185 -4 -64 -13 -144 -21 -179 -8 -35 -14 -76 -14 -93 0 -16 -9 -38 -20
-49 -24 -24 -42 -26 -34 -5 10 25 -15 17 -41 -12 -15 -17 -22 -35 -19 -46 4
-14 1 -17 -13 -15 -12 2 -18 -3 -17 -14 1 -10 -4 -18 -12 -18 -8 0 -11 6 -8
15 4 8 -1 17 -10 21 -23 9 -20 23 4 17 22 -6 23 -3 14 21 -5 13 -9 14 -20 5
-20 -16 -28 -5 -15 20 7 12 7 22 2 26 -15 8 -2 160 19 241 22 82 25 115 10
130 -16 16 4 69 28 72 12 2 22 8 22 15 0 6 6 3 13 -7 17 -23 39 -13 55 24 15
33 20 35 44 16z m2638 -227 c41 -6 84 -18 95 -25 19 -14 19 -14 0 -14 -11 1
-81 11 -155 24 -97 17 -125 25 -100 28 39 5 54 3 160 -13z m225 -77 c-3 -3
-11 0 -18 7 -9 10 -8 11 6 5 10 -3 15 -9 12 -12z m-217 -88 c45 -7 58 -24 17
-24 -35 0 -165 21 -195 31 -28 10 107 5 178 -7z m-2710 -162 c4 -25 30 -30 38
-7 16 40 24 6 21 -87 -2 -93 -6 -110 -35 -172 -18 -38 -48 -112 -66 -165 -71
-201 -138 -347 -206 -446 -50 -72 -142 -149 -208 -174 -74 -28 -102 -23 -160
26 -86 73 -102 133 -109 418 -6 238 5 384 30 409 15 16 47 12 47 -5 0 -4 7 -6
15 -3 11 5 15 -1 15 -21 0 -15 4 -24 10 -20 6 4 9 21 7 38 -2 18 -2 25 0 16 5
-20 43 -14 43 7 0 8 7 14 15 14 8 0 15 -7 15 -16 0 -9 10 -24 22 -33 21 -18
21 -21 10 -102 -14 -97 -28 -348 -24 -399 4 -39 29 -87 50 -95 8 -3 23 -3 34
1 21 6 105 127 148 214 30 58 125 349 135 412 3 21 13 44 21 53 9 8 11 15 5
15 -6 0 -11 9 -11 20 0 22 10 26 26 10 6 -6 21 1 42 21 26 25 36 28 47 19 8
-6 19 -9 24 -6 14 9 2 36 -16 36 -13 0 -13 3 -2 16 10 13 10 17 -2 26 -12 8
-12 9 1 5 8 -2 16 -13 18 -25z m-981 -108 c4 -11 13 -14 29 -10 15 4 24 2 24
-5 0 -7 11 -9 29 -6 25 5 28 3 24 -13 -3 -11 0 -20 6 -20 6 0 11 8 11 18 1 15
2 15 12 -3 21 -35 7 -146 -32 -265 -10 -30 -21 -74 -25 -97 -4 -24 -11 -45
-16 -49 -5 -3 -7 -10 -3 -15 10 -16 -7 -69 -22 -69 -19 0 -18 -26 1 -34 17 -6
21 -66 4 -66 -6 0 -8 -7 -5 -16 3 -9 2 -42 -4 -73 -6 -31 -17 -87 -24 -126
l-13 -70 -84 3 c-85 3 -159 17 -159 30 1 8 23 104 46 195 8 34 19 78 23 98 10
45 18 59 37 59 8 0 14 4 14 9 0 13 39 21 47 9 4 -7 1 -8 -6 -3 -9 5 -12 2 -9
-10 3 -18 65 -44 86 -37 7 2 12 12 12 22 0 10 10 20 22 23 18 5 19 8 9 21 -9
11 -18 13 -30 7 -19 -10 -61 18 -61 41 0 27 -14 29 -31 6 -19 -25 -29 -22 -32
11 -1 11 -7 21 -13 21 -19 0 -8 149 16 220 11 33 37 129 44 161 3 14 16 31 28
37 32 15 38 14 45 -4z m3653 -34 c25 -6 55 -12 68 -15 12 -3 22 -10 22 -15 0
-5 -6 -7 -12 -5 -32 10 -91 17 -188 22 -58 3 -109 9 -114 14 -13 12 166 11
224 -1z m-3786 -472 c-3 -4 -9 -8 -15 -8 -5 0 -9 4 -9 8 0 5 7 9 15 9 8 0 12
-4 9 -9z m2281 -328 c-3 -5 -12 -10 -18 -10 -7 0 -6 4 3 10 19 12 23 12 15 0z
m-70 -45 c-30 -25 -99 -66 -80 -47 16 15 97 72 104 72 3 0 -7 -11 -24 -25z
m60 -205 c-3 -5 -22 -12 -43 -16 -20 -4 -49 -13 -64 -20 -31 -16 -58 -18 -58
-5 0 5 26 15 58 21 31 7 64 16 72 21 20 11 43 11 35 -1z m-2215 -300 c0 -15
-7 -20 -25 -20 -24 0 -34 18 -18 33 15 15 43 7 43 -13z m480 -24 c0 -7 -8 -16
-19 -19 -10 -2 -21 -17 -25 -33 -6 -23 -3 -32 14 -46 19 -16 20 -45 0 -33 -17
11 -28 -24 -33 -108 -5 -88 -17 -121 -37 -101 -6 6 -6 22 0 44 13 45 13 170 0
170 -5 0 -10 7 -10 15 0 8 6 15 14 15 9 0 17 16 21 43 4 23 12 48 17 55 14 17
58 16 58 -2z m-874 -73 c-4 -32 -9 -74 -12 -94 -8 -46 16 -75 46 -56 26 15 30
28 44 118 6 43 16 76 21 75 19 -2 -5 -206 -27 -230 -5 -6 -12 -6 -20 2 -8 8
-17 8 -30 1 -25 -13 -55 -3 -63 22 -4 12 -1 65 6 120 10 73 17 99 27 99 12 0
13 -11 8 -57z m174 25 c0 -9 3 -9 12 0 20 20 55 13 78 -15 19 -25 21 -36 15
-98 -9 -101 -15 -125 -31 -125 -12 0 -13 10 -7 53 4 28 8 77 8 107 0 52 -2 55
-26 58 -35 4 -44 -10 -63 -107 -18 -91 -24 -107 -36 -94 -4 4 -4 33 1 63 5 30
12 81 15 113 5 38 11 57 20 57 8 0 14 -5 14 -12z m940 -40 c0 -30 -12 -49 -37
-59 -20 -7 -24 -15 -21 -41 2 -27 8 -34 33 -39 30 -7 27 -8 -31 -15 -26 -3
-32 1 -42 29 -17 47 -15 65 8 77 11 6 20 21 20 35 0 36 26 58 50 42 11 -6 20
-19 20 -29z m-753 -10 c-3 -24 -9 -73 -13 -110 -6 -60 -25 -101 -40 -86 -3 3
0 34 6 69 6 35 14 82 16 104 8 55 11 65 25 65 8 0 10 -13 6 -42z m199 1 c18
-15 18 -59 0 -59 -8 0 -18 9 -21 20 -16 50 -72 45 -100 -10 -18 -35 -20 -111
-3 -128 19 -19 63 -14 83 8 10 11 22 20 27 20 15 0 8 -21 -17 -45 -30 -31 -86
-34 -114 -6 -36 36 -35 134 3 183 34 45 99 53 142 17z m166 -6 c13 -12 18 -30
18 -70 l0 -54 -57 2 -58 3 0 -33 c0 -22 6 -38 18 -45 15 -9 22 -6 42 19 18 22
27 27 36 18 21 -21 -15 -65 -64 -77 -40 -9 -77 30 -77 81 0 59 19 114 50 145
32 32 65 36 92 11z m3133 7 c-3 -5 -15 -10 -26 -10 -10 0 -19 5 -19 10 0 6 12
10 26 10 14 0 23 -4 19 -10z m-2615 -30 c37 -37 21 -94 -34 -114 -13 -5 -17
-12 -12 -31 5 -21 2 -25 -28 -30 -42 -8 -81 -3 -81 10 0 6 10 11 22 13 35 5
47 27 34 63 -12 36 -5 79 14 79 7 0 18 7 25 15 17 20 36 19 60 -5z m2548 13
c-10 -2 -26 -2 -35 0 -10 3 -2 5 17 5 19 0 27 -2 18 -5z m-128 -17 c0 -2 -7
-7 -16 -10 -8 -3 -12 -2 -9 4 6 10 25 14 25 6z m-1220 -26 c-8 -5 -17 -7 -19
-4 -3 3 1 9 9 14 8 5 17 7 19 4 3 -3 -1 -9 -9 -14z m1675 -90 c3 -5 -1 -10 -9
-10 -9 0 -16 5 -16 10 0 6 4 10 9 10 6 0 13 -4 16 -10z m-3045 -99 c0 -5 -9
-7 -20 -4 -11 3 -20 7 -20 9 0 2 9 4 20 4 11 0 20 -4 20 -9z m2930 -131 c0 -5
-9 -10 -21 -10 -11 0 -17 5 -14 10 3 6 13 10 21 10 8 0 14 -4 14 -10z m174
-56 c3 -8 2 -12 -4 -9 -6 3 -10 10 -10 16 0 14 7 11 14 -7z m59 -139 c20 -38
40 -97 46 -129 15 -79 14 -81 -10 -16 -23 64 -39 104 -68 180 -28 71 -13 54
32 -35z m-204 24 c6 -17 13 -54 15 -82 6 -55 5 -53 -24 49 -18 65 -11 90 9 33z
m324 -94 c20 -42 4 -47 -18 -5 -17 33 -18 40 -7 40 5 0 16 -16 25 -35z m59
-118 c43 -84 64 -155 50 -169 -6 -6 -12 4 -16 27 -7 35 -36 107 -84 208 -2 4
0 7 5 7 4 0 25 -33 45 -73z m-235 31 c-3 -8 -6 -5 -6 6 -1 11 2 17 5 13 3 -3
4 -12 1 -19z m143 -119 c0 -5 -4 -9 -10 -9 -5 0 -10 7 -10 16 0 8 5 12 10 9 6
-3 10 -10 10 -16z m-90 -46 c4 -21 19 -90 33 -153 14 -63 27 -149 30 -190 l5
-75 -14 60 c-8 33 -27 130 -44 215 -17 85 -33 166 -36 180 -5 20 -4 23 6 13 7
-6 16 -29 20 -50z m95 -12 c2 -12 0 -19 -6 -16 -5 4 -9 16 -9 27 0 26 9 19 15
-11z m142 -63 c-3 -8 -6 -5 -6 6 -1 11 2 17 5 13 3 -3 4 -12 1 -19z m-120 -70
c-3 -7 -5 -2 -5 12 0 14 2 19 5 13 2 -7 2 -19 0 -25z m30 -140 c-3 -8 -6 -5
-6 6 -1 11 2 17 5 13 3 -3 4 -12 1 -19z m26 -76 c4 -21 3 -31 -3 -27 -6 3 -10
20 -10 37 0 38 5 34 13 -10z m29 -414 c-9 -9 -12 -1 -11 33 l1 44 11 -33 c7
-24 7 -36 -1 -44z m-95 -1695 c7 -20 -39 -51 -168 -115 -148 -72 -194 -81
-244 -47 -47 32 -53 58 -24 116 32 62 54 70 44 16 -8 -52 14 -78 59 -69 60 12
192 58 246 85 58 30 81 33 87 14z m276 -26 c3 -8 2 -19 -3 -26 -5 -10 -9 -8
-14 4 -3 9 -6 21 -6 26 0 14 17 11 23 -4z m-4 -124 c0 -40 -2 -44 -10 -25 -8
21 -3 72 7 72 2 0 4 -21 3 -47z m16 -183 c3 -5 -3 -10 -14 -10 -12 0 -21 5
-21 10 0 6 6 10 14 10 8 0 18 -4 21 -10z m-295 -66 c0 -2 -11 -4 -25 -4 -14 0
-25 4 -25 9 0 4 11 6 25 3 14 -2 25 -6 25 -8z m0 -63 c0 -11 6 -22 13 -25 6
-3 3 -5 -8 -3 -21 2 -36 47 -16 47 6 0 11 -9 11 -19z m410 -2020 c0 -5 -7 -11
-15 -15 -15 -5 -20 5 -8 17 9 10 23 9 23 -2z m-2870 -1331 c0 -5 -12 -10 -26
-10 -14 0 -23 4 -19 10 3 6 15 10 26 10 10 0 19 -4 19 -10z m-339 -47 c-17
-21 -31 -43 -31 -49 0 -7 -7 -15 -15 -18 -22 -8 -40 41 -26 70 9 22 29 30 79
33 23 1 23 0 -7 -36z m924 7 c-3 -5 -11 -10 -16 -10 -6 0 -7 5 -4 10 3 6 11
10 16 10 6 0 7 -4 4 -10z m-830 -40 c-3 -5 -13 -10 -21 -10 -8 0 -12 5 -9 10
3 6 13 10 21 10 8 0 12 -4 9 -10z m-127 -95 c-6 -14 -22 -28 -35 -30 -13 -3
-35 -7 -49 -10 -38 -8 -21 11 34 40 60 31 64 31 50 0z m300 0 c11 -11 -9 -16
-37 -10 -42 9 -41 29 1 21 17 -3 34 -8 36 -11z m52 -13 c0 -13 -12 -22 -22
-16 -10 6 -1 24 13 24 5 0 9 -4 9 -8z m-216 -19 c4 -4 13 -8 19 -8 25 -2 67
-18 67 -25 0 -5 16 -14 35 -20 39 -13 62 -37 27 -28 -12 4 -25 2 -28 -3 -9
-16 -62 -10 -73 9 -6 9 -11 11 -11 5 0 -8 -13 -13 -30 -13 -28 0 -40 -13 -22
-24 6 -4 8 -38 3 -65 -1 -3 -6 0 -13 7 -7 7 -22 12 -35 12 -14 0 -23 6 -23 15
0 8 7 15 16 15 13 0 14 3 4 15 -12 15 -5 39 10 30 4 -3 6 3 3 13 -10 41 27 89
51 65z m3145 -32 c14 -9 9 -41 -7 -41 -5 0 -14 11 -20 25 -12 27 -1 34 27 16z
m-89 -25 c0 -11 -19 -15 -25 -6 -3 5 1 10 9 10 9 0 16 -2 16 -4z m-3070 -146
c0 -12 -8 -12 -35 0 -18 8 -17 9 8 9 15 1 27 -3 27 -9z m2910 -10 c0 -11 -4
-20 -10 -20 -5 0 -10 9 -10 20 0 11 5 20 10 20 6 0 10 -9 10 -20z m-2170 0 c0
-5 -2 -10 -4 -10 -3 0 -8 5 -11 10 -3 6 -1 10 4 10 6 0 11 -4 11 -10z m-1480
-120 c0 -5 -4 -10 -9 -10 -6 0 -13 5 -16 10 -3 6 1 10 9 10 9 0 16 -4 16 -10z
m-13 -46 c-3 -3 -12 -4 -19 -1 -8 3 -5 6 6 6 11 1 17 -2 13 -5z m358 -34 c-3
-5 -13 -10 -21 -10 -8 0 -14 5 -14 10 0 6 9 10 21 10 11 0 17 -4 14 -10z"/>
<path d="M2622 12410 c0 -14 2 -19 5 -12 2 6 2 18 0 25 -3 6 -5 1 -5 -13z"/>
<path d="M2601 12384 c0 -11 3 -14 6 -6 3 7 2 16 -1 19 -3 4 -6 -2 -5 -13z"/>
<path d="M4432 11495 c-43 -19 -48 -38 -22 -75 26 -36 27 -36 63 -7 18 14 30
35 34 60 5 34 4 37 -18 37 -13 -1 -39 -7 -57 -15z"/>
<path d="M4416 11324 c-9 -22 -8 -24 9 -18 8 4 15 12 15 20 0 19 -16 18 -24
-2z"/>
<path d="M4410 11245 c0 -8 4 -15 10 -15 5 0 7 7 4 15 -4 8 -8 15 -10 15 -2 0
-4 -7 -4 -15z"/>
<path d="M2667 10774 c-12 -12 -8 -23 12 -33 15 -9 18 -7 17 11 -1 22 -17 34
-29 22z"/>
<path d="M2230 10610 c0 -5 5 -10 10 -10 6 0 10 5 10 10 0 6 -4 10 -10 10 -5
0 -10 -4 -10 -10z"/>
<path d="M2190 10565 c0 -9 5 -15 11 -13 6 2 11 8 11 13 0 5 -5 11 -11 13 -6
2 -11 -4 -11 -13z"/>
<path d="M2160 10530 c0 -5 5 -10 10 -10 6 0 10 5 10 10 0 6 -4 10 -10 10 -5
0 -10 -4 -10 -10z"/>
<path d="M3042 10439 c2 -6 8 -10 13 -10 5 0 11 4 13 10 2 6 -4 11 -13 11 -9
0 -15 -5 -13 -11z"/>
<path d="M2950 10294 c0 -8 5 -12 10 -9 6 4 8 11 5 16 -9 14 -15 11 -15 -7z"/>
<path d="M3030 10006 c0 -9 7 -16 16 -16 17 0 14 22 -4 28 -7 2 -12 -3 -12
-12z"/>
<path d="M2940 9956 c0 -9 5 -16 10 -16 6 0 10 4 10 9 0 6 -4 13 -10 16 -5 3
-10 -1 -10 -9z"/>
<path d="M2965 9829 c-4 -6 -5 -13 -2 -16 7 -7 27 6 27 18 0 12 -17 12 -25 -2z"/>
<path d="M2347 9699 c4 -13 8 -18 11 -10 2 7 -1 18 -6 23 -8 8 -9 4 -5 -13z"/>
<path d="M2460 9680 c0 -5 5 -10 11 -10 5 0 7 5 4 10 -3 6 -8 10 -11 10 -2 0
-4 -4 -4 -10z"/>
<path d="M2520 9009 c0 -5 5 -7 10 -4 6 3 10 8 10 11 0 2 -4 4 -10 4 -5 0 -10
-5 -10 -11z"/>
<path d="M1970 9220 c0 -5 5 -10 10 -10 6 0 10 5 10 10 0 6 -4 10 -10 10 -5 0
-10 -4 -10 -10z"/>
<path d="M2037 9224 c-8 -8 1 -24 14 -24 5 0 9 7 9 15 0 15 -12 20 -23 9z"/>
<path d="M1906 9077 c-15 -11 -16 -17 -7 -35 14 -27 14 -65 -1 -80 -15 -15
-10 -19 27 -24 27 -3 30 0 38 40 5 25 14 42 22 42 16 0 29 35 19 51 -3 6 -17
9 -30 6 -14 -2 -27 0 -30 4 -7 12 -17 11 -38 -4z m34 -57 c0 -5 -5 -10 -11
-10 -5 0 -7 5 -4 10 3 6 8 10 11 10 2 0 4 -4 4 -10z m-3 -52 c-3 -8 -6 -5 -6
6 -1 11 2 17 5 13 3 -3 4 -12 1 -19z"/>
<path d="M1864 8999 c-3 -6 -1 -16 5 -22 9 -9 14 -8 21 3 9 15 4 30 -10 30 -5
0 -12 -5 -16 -11z"/>
<path d="M1977 8993 c-11 -10 -8 -43 3 -43 12 0 31 35 23 44 -8 8 -18 8 -26
-1z"/>
<path d="M2228 8268 c-9 -7 -19 -23 -23 -35 -6 -21 -3 -23 34 -23 36 0 41 3
41 23 0 22 -16 47 -30 47 -3 0 -13 -6 -22 -12z"/>
<path d="M3288 833 c7 -3 16 -2 19 1 4 3 -2 6 -13 5 -11 0 -14 -3 -6 -6z"/>
<path d="M3160 784 c0 -8 5 -12 10 -9 6 3 10 10 10 16 0 5 -4 9 -10 9 -5 0
-10 -7 -10 -16z"/>
<path d="M4460 13670 c0 -5 -6 -7 -14 -4 -16 6 -27 -28 -15 -47 13 -21 10 -72
-6 -93 -16 -22 -20 -73 -6 -94 7 -11 9 -11 14 2 9 24 18 20 80 -35 58 -51 114
-72 139 -52 7 6 38 13 68 17 30 4 62 14 71 22 10 9 23 14 31 13 7 -1 30 1 51
5 30 7 37 13 37 31 0 52 -57 125 -133 170 -55 33 -181 70 -198 59 -4 -2 -10 0
-14 6 -8 13 -105 13 -105 0z"/>
<path d="M4226 13628 c-29 -30 -33 -40 -34 -95 -1 -34 2 -72 7 -84 8 -22 9
-22 55 22 84 78 96 90 97 97 0 4 3 20 5 35 7 40 -11 57 -58 57 -32 0 -47 -7
-72 -32z"/>
<path d="M1820 13312 c0 -18 6 -32 16 -36 12 -5 15 1 12 26 -4 42 -28 50 -28
10z"/>
<path d="M4505 13221 c-7 -12 24 -43 36 -36 5 3 3 15 -4 25 -13 22 -23 25 -32
11z"/>
<path d="M4530 13161 c0 -5 9 -7 20 -4 11 3 20 7 20 9 0 2 -9 4 -20 4 -11 0
-20 -4 -20 -9z"/>
<path d="M5126 13131 c-4 -7 -5 -15 -2 -18 9 -9 19 4 14 18 -4 11 -6 11 -12 0z"/>
<path d="M5378 12888 c-36 -13 -36 -28 0 -28 27 0 52 15 52 32 0 10 -18 9 -52
-4z"/>
<path d="M2655 12765 c-19 -15 -19 -15 10 -13 17 2 29 7 28 13 -3 16 -18 16
-38 0z"/>
<path d="M3178 12663 c7 -3 16 -2 19 1 4 3 -2 6 -13 5 -11 0 -14 -3 -6 -6z"/>
<path d="M5315 12095 c-43 -52 -83 -103 -88 -113 -5 -9 -26 -31 -45 -48 l-36
-31 29 -26 c17 -15 33 -27 36 -27 3 0 18 -11 33 -25 15 -14 34 -25 43 -25 9 0
34 -15 57 -33 50 -40 120 -87 129 -87 3 0 22 -11 41 -24 19 -12 55 -26 79 -29
25 -4 63 -15 84 -27 56 -29 125 -37 142 -16 7 9 22 16 33 16 10 0 17 4 14 9
-3 5 7 11 22 14 15 3 59 15 97 27 39 11 100 24 138 28 88 9 87 27 -2 27 -38 0
-73 3 -77 8 -4 4 -19 7 -33 7 -25 1 -25 1 -7 15 11 8 14 15 7 15 -19 0 -2 20
25 30 38 15 28 30 -18 31 -30 0 -37 3 -24 8 17 6 15 10 -14 34 -22 19 -39 26
-54 22 -20 -6 -20 -5 3 14 l23 21 -24 0 c-16 0 -29 9 -37 23 -7 14 -21 23 -34
23 -14 -1 -26 8 -32 21 -6 14 -22 25 -40 29 -28 5 -159 -11 -176 -22 -4 -2
-10 0 -14 6 -3 5 0 10 8 10 8 0 18 11 21 25 4 15 20 31 41 41 44 20 45 39 3
49 -63 14 -69 12 -108 -34 -31 -36 -42 -43 -52 -33 -9 9 -8 15 5 24 9 7 23 29
31 49 15 35 15 36 -10 48 -16 7 -32 8 -41 2 -18 -10 -53 -3 -53 10 0 5 -10 9
-22 9 -16 -1 -46 -28 -103 -95z m175 -133 c0 -4 -16 -23 -35 -42 -19 -19 -35
-29 -35 -22 0 7 4 12 10 12 5 0 16 14 25 30 14 28 35 41 35 22z"/>
<path d="M4517 12096 c-5 -12 1 -16 24 -16 20 0 29 4 27 13 -7 18 -45 20 -51
3z"/>
<path d="M6198 11383 c6 -2 12 -11 12 -18 0 -8 6 -20 13 -27 6 -7 20 -29 29
-48 21 -44 24 -13 3 37 -15 36 -41 63 -60 62 -5 0 -4 -3 3 -6z"/>
<path d="M5633 8328 c-46 -12 -83 -25 -83 -30 0 -14 106 -9 137 6 15 8 36 17
46 20 9 3 17 10 17 16 0 14 -23 12 -117 -12z"/>
<path d="M5635 8050 c-3 -5 -1 -10 4 -10 6 0 11 5 11 10 0 6 -2 10 -4 10 -3 0
-8 -4 -11 -10z"/>
<path d="M6175 6570 c3 -41 15 -51 15 -12 0 17 -4 33 -9 36 -5 3 -8 -8 -6 -24z"/>
<path d="M6130 4075 c0 -30 17 -52 30 -39 8 8 5 18 -9 35 -19 22 -20 23 -21 4z"/>
<path d="M2790 804 c-10 -12 -8 -14 14 -14 28 0 35 14 12 23 -8 3 -20 -1 -26
-9z"/>
<path d="M2760 771 c0 -6 9 -16 19 -23 25 -18 12 -43 -17 -34 -13 4 -22 1 -26
-9 -3 -8 -12 -15 -19 -15 -15 0 -57 -33 -57 -45 0 -4 12 -4 28 0 32 9 58 13
91 14 16 1 21 5 18 15 -8 19 23 29 58 20 21 -5 27 -4 23 7 -2 8 -14 18 -26 24
-12 5 -22 17 -22 26 0 9 -10 19 -22 23 -33 8 -48 7 -48 -3z"/>
<path d="M6325 747 c-9 -23 1 -47 19 -47 24 0 26 14 6 40 -17 22 -19 23 -25 7z"/>
<path d="M2617 663 c-12 -11 -8 -23 8 -23 8 0 15 7 15 15 0 16 -12 20 -23 8z"/>
<path d="M2565 650 c-3 -5 1 -10 9 -10 9 0 16 5 16 10 0 6 -4 10 -9 10 -6 0
-13 -4 -16 -10z"/>
<path d="M6180 651 c23 -13 89 -21 95 -12 5 8 -51 21 -90 21 -16 -1 -17 -2 -5
-9z"/>
<path d="M2510 640 c-19 -4 -21 -7 -9 -12 9 -3 22 -2 30 2 19 13 8 18 -21 10z"/>
<path d="M6323 560 c-12 -30 4 -50 39 -49 l23 0 -22 11 c-12 6 -24 22 -26 37
l-3 26 -11 -25z"/>
<path d="M2840 500 c0 -5 7 -10 16 -10 8 0 12 5 9 10 -3 6 -10 10 -16 10 -5 0
-9 -4 -9 -10z"/>
<path d="M6165 471 c-8 -14 5 -19 57 -22 63 -4 70 6 14 20 -54 13 -63 14 -71
2z"/>
<path d="M6310 460 c14 -4 32 -8 40 -9 13 -1 13 0 0 9 -8 5 -26 9 -40 9 l-25
-1 25 -8z"/>
<path d="M5960 449 c0 -6 8 -9 18 -6 9 2 28 -2 42 -8 14 -7 48 -15 75 -18 28
-4 44 -4 38 -1 -7 3 -13 13 -13 22 0 14 -13 17 -80 19 -50 1 -80 -2 -80 -8z"/>
<path d="M6344 397 c6 -25 5 -26 -24 -21 -23 5 -30 3 -30 -10 0 -17 -25 -22
-34 -8 -3 5 -45 12 -94 15 -49 4 -98 9 -108 13 -11 3 -4 -4 14 -17 27 -18 47
-22 105 -21 51 0 85 -5 116 -19 46 -21 72 -22 79 -1 2 7 -5 12 -17 12 -12 0
-21 5 -21 11 0 7 11 8 29 4 34 -7 55 13 22 22 -12 3 -21 11 -21 19 0 7 -5 16
-11 20 -9 5 -10 -1 -5 -19z"/>
<path d="M5970 100 c-9 -6 -10 -10 -3 -10 6 0 15 5 18 10 8 12 4 12 -15 0z"/>
<path d="M5908 67 c14 -6 26 -7 32 -1 5 5 -4 9 -23 10 -30 1 -30 1 -9 -9z"/>
<path d="M5975 60 c-3 -5 -1 -10 4 -10 6 0 11 5 11 10 0 6 -2 10 -4 10 -3 0
-8 -4 -11 -10z"/>
<path d="M6432 60 c-18 -4 -36 -11 -40 -15 -9 -9 58 4 78 16 18 10 7 10 -38
-1z"/>
<path d="M6010 56 c0 -2 7 -6 15 -10 8 -3 15 -1 15 4 0 6 -7 10 -15 10 -8 0
-15 -2 -15 -4z"/>
<path d="M6200 40 c-30 -6 -27 -8 25 -9 42 0 56 2 45 9 -17 11 -19 11 -70 0z"/>
<path d="M6300 40 c-11 -7 -7 -10 18 -10 20 0 31 4 27 10 -8 13 -26 13 -45 0z"/>
<path d="M6123 33 c9 -2 23 -2 30 0 6 3 -1 5 -18 5 -16 0 -22 -2 -12 -5z"/>
</g>
</svg>
